<?xml version="1.0" encoding="UTF-8" standalone="no"?>
<svg
   id="Vector"
   viewBox="0 0 1022.85 549.53833"
   version="1.1"
   sodipodi:docname="server.svg"
   width="1022.85"
   height="549.53833"
   inkscape:version="1.1 (c68e22c387, 2021-05-23)"
   xmlns:inkscape="http://www.inkscape.org/namespaces/inkscape"
   xmlns:sodipodi="http://sodipodi.sourceforge.net/DTD/sodipodi-0.dtd"
   xmlns="http://www.w3.org/2000/svg"
   xmlns:svg="http://www.w3.org/2000/svg"
   xmlns:rdf="http://www.w3.org/1999/02/22-rdf-syntax-ns#"
   xmlns:cc="http://creativecommons.org/ns#"
   xmlns:dc="http://purl.org/dc/elements/1.1/">
  <sodipodi:namedview
     id="namedview30613"
     pagecolor="#ffffff"
     bordercolor="#666666"
     borderopacity="1.0"
     inkscape:pageshadow="2"
     inkscape:pageopacity="0.0"
     inkscape:pagecheckerboard="0"
     showgrid="false"
     fit-margin-top="0"
     fit-margin-left="0"
     fit-margin-right="0"
     fit-margin-bottom="0"
     inkscape:zoom="0.7275"
     inkscape:cx="101.71821"
     inkscape:cy="103.78007"
     inkscape:window-width="2409"
     inkscape:window-height="1081"
     inkscape:window-x="1086"
     inkscape:window-y="560"
     inkscape:window-maximized="0"
     inkscape:current-layer="Vector" />
  <defs
     id="defs30474">
    <style
       id="style30472">.cls-1,.cls-14,.cls-15,.cls-16,.cls-17,.cls-5{fill:none;}.cls-1{stroke:#dfdfdf;stroke-miterlimit:10;}.cls-1,.cls-14,.cls-16,.cls-5{stroke-width:4px;}.cls-2{fill:#f3f3f3;}.cls-3{fill:#dfdfdf;}.cls-4{fill:#56cad8;}.cls-5{stroke:#ed7562;}.cls-14,.cls-15,.cls-16,.cls-17,.cls-5{stroke-linecap:round;stroke-linejoin:round;}.cls-6{fill:#ed7562;}.cls-7{fill:#de8e68;}.cls-8{fill:#d37c59;}.cls-9{fill:#fcc486;}.cls-10{fill:#fed385;}.cls-11{fill:#fed892;}.cls-12{fill:#fd8369;}.cls-13{fill:#74d5de;}.cls-14{stroke:#fd8369;}.cls-15{stroke:#8bdde4;stroke-width:3px;}.cls-16,.cls-17{stroke:#f3f3f3;}.cls-17{stroke-width:2px;}</style>
  </defs>
  <title
     id="title30476">Artboard 1</title>
  <rect
     class="cls-2"
     x="158.63"
     y="0"
     width="262.42001"
     height="440.77521"
     id="rect30480"
     style="stroke-width:0.933898" />
  <rect
     class="cls-3"
     x="98.310005"
     y="0"
     width="61.040001"
     height="440.77521"
     id="rect30482"
     style="stroke-width:0.933898" />
  <path
     class="cls-4"
     d="m 160.29,477.89833 c -59.23,0 -160.29,-90.39 -160.29,-165.46 0,-5.71 2.71,-16.49 8.69,-16.49 32.33,-0.05 151.6,96.32 151.6,181.95 z"
     id="path30484" />
  <line
     class="cls-5"
     x1="865.21997"
     y1="512.43835"
     x2="800.23999"
     y2="403.09836"
     id="line30488" />
  <line
     class="cls-5"
     x1="893.39996"
     y1="512.43835"
     x2="828.41998"
     y2="403.09836"
     id="line30490" />
  <line
     class="cls-5"
     x1="685.96997"
     y1="512.43835"
     x2="750.94"
     y2="403.09836"
     id="line30492" />
  <path
     class="cls-6"
     d="m 835.35,172.69833 h 96.07 l -64.52,233.83 H 703.22 v -8.33 h 121.39 z"
     id="path30494" />
  <rect
     class="cls-7"
     x="588.42993"
     y="604.43762"
     width="18.43"
     height="16.469999"
     transform="rotate(-8.84)"
     id="rect30496" />
  <rect
     class="cls-7"
     x="741.34845"
     y="95.267662"
     width="18.43"
     height="16.469999"
     transform="rotate(33)"
     id="rect30498" />
  <path
     class="cls-4"
     d="m 645.93,326.15833 c -13.45,0 -80.58,156.29 -80.58,162 0,5.71 14.57,12.19 16.72,12.19 3.35,-3.11 67.61,-96 74.3,-102.48 6.69,-6.48 -10.44,-71.71 -10.44,-71.71 z"
     id="path30500" />
  <path
     class="cls-8"
     d="m 752.75,211.38833 c -4.42,1.39 -26,19.88 -29.77,42.09 -3.84,-0.46 -26.88,-1.42 -36.48,-1.81 -3.14,-4.89 -9.75,-8.28 -17.42,-8.28 -10.69,0 -19.36,6.57 -19.36,14.67 0,0.18 0,0.35 0,0.53 h 38.65 c 0,-0.18 0,-0.35 0,-0.53 a 11.65,11.65 0 0 0 -1.6,-5.82 l 33.58,5.35 39.89,4.15 4.11,-34.84 z"
     id="path30502" />
  <path
     class="cls-9"
     d="m 785.87,186.63833 c 0,-2.81 -7,-6 -12.14,-6 -13.72,0 -36.93,25 -36.93,28.14 0,3.14 16.71,17.12 29.55,17.96 12.84,0.84 19.52,-40.1 19.52,-40.1 z"
     id="path30504" />
  <path
     class="cls-10"
     d="m 819.95,166.59833 c 77.55,0 59.83,175.19 50,182.59 -9.83,7.4 -96,8.08 -101.61,0.68 -5.61,-7.4 -40.42,-183.27 51.61,-183.27 z"
     id="path30506" />
  <path
     class="cls-8"
     d="m 833.58,133.08833 h -31 v 41.53 c 0,6.59 31,6.64 31,0 z"
     id="path30508" />
  <ellipse
     class="cls-7"
     cx="16.760014"
     cy="819.7356"
     rx="45.549999"
     ry="30.639999"
     transform="rotate(-80.94)"
     id="ellipse30510" />
  <path
     d="m 884.85,45.398329 c 15,0 30,8 49,8 15,0 29,-6 47,-6 32,0 42,21 42,34 0,33.000001 -27,46.000001 -47,46.000001 -32,0 -36,-22 -74,-22 -37,0 -32,-30.000001 -40,-30.000001 -4,0 -6.5,0.5 -8,2 -1.5,1.5 -9,-4 -9,-6 0,-2 10,-26 40,-26 z"
     id="path30512" />
  <path
     d="m 817.85,56.398329 c -35.37,0 -42.77,26.91 -42.77,34.68 0,7.77 4.91,13.530001 7.42,13.720001 1.56,-9.290001 9,-22.110001 9.35,-22.400001 2,2 9.41,8.42 17,9 a 37.69,37.69 0 0 1 17.85,5.56 19.09,19.09 0 0 0 2.86,7.240001 17.38,17.38 0 0 0 8.78,7.15 21.64,21.64 0 0 1 1.51,7 c 0,10.68 -1,15 -2,18 16.3,0 24,-16.79 24,-38.000001 0,-34.92 -30.9,-41.95 -44,-41.95 z"
     id="path30514" />
  <circle
     class="cls-7"
     cx="839.79999"
     cy="118.55829"
     r="8.6400003"
     id="circle30516" />
  <path
     class="cls-7"
     d="m 810.85,231.26833 c -3.49,0.84 -17.48,9.51 -25.87,24.47 -8.25,-1.54 -41.81,-9.93 -71.6,-9.93 -2.8,0 -10.07,-2.3 -13,-2.3 -17.47,0 -21.12,9.44 -21.12,12.23 0,2.79 0.6,2.87 1.14,2.87 60,0 75.09,25.31 108.84,25.31 10.92,0 33.43,-7.91 47,-28.17 -4.76,-16.14 -25.39,-24.48 -25.39,-24.48 z"
     id="path30518" />
  <path
     class="cls-11"
     d="m 869.83,197.16833 c 18.74,18.19 -28.65,68.54 -36.25,67.8 -7.6,-0.74 -35,-29.59 -35.26,-38.36 -0.26,-8.77 53.4,-47.03 71.51,-29.44 z"
     id="path30520" />
  <rect
     class="cls-12"
     x="485.12003"
     y="260.84836"
     width="423.23001"
     height="13.66"
     id="rect30522" />
  <path
     class="cls-13"
     d="m 869.78,357.89833 c 0,-4.3 0.75,-9.28 -1.93,-10.39 -63.62,-26.23 -156.76,-29.63 -171.11,-29.63 -14.35,0 -56.31,1.46 -56.31,13.47 0,43.38 24.17,176.93 29.08,181.92 2.33,2.35 22.65,0.78 25.18,-1.76 -0.17,-11 6.22,-121.49 0.39,-134.87 53.47,19.6 114.19,28.88 130.19,28.88 46.37,-0.05 44.51,-42.52 44.51,-47.62 z"
     id="path30524" />
  <polygon
     points="668,1020.17 680.52,1001.56 664.38,990.8 620.94,981.7 616.81,988.52 "
     id="polygon30526"
     transform="translate(-102.65,-496.10167)" />
  <polygon
     points="802.63,1034.26 799.23,1012.08 780.08,1015.09 741.95,1037.81 743.53,1045.64 "
     id="polygon30528"
     transform="translate(-102.65,-496.10167)" />
  <line
     class="cls-14"
     x1="885.60999"
     y1="478.22836"
     x2="885.60999"
     y2="270.68832"
     id="line30530" />
  <line
     class="cls-14"
     x1="533.95996"
     y1="478.22836"
     x2="533.95996"
     y2="270.68832"
     id="line30532" />
  <line
     class="cls-14"
     x1="855.88995"
     y1="519.81836"
     x2="855.88995"
     y2="270.68832"
     id="line30534" />
  <line
     class="cls-14"
     x1="502.56003"
     y1="519.81836"
     x2="502.56003"
     y2="270.68832"
     id="line30536" />
  <line
     class="cls-5"
     x1="714.88"
     y1="512.43835"
     x2="779.84998"
     y2="403.09836"
     id="line30538" />
  <rect
     class="cls-13"
     x="640.42999"
     y="258.33835"
     width="70.269997"
     height="2.51"
     id="rect30540" />
  <rect
     class="cls-13"
     x="562.47998"
     y="94.748291"
     width="153.42"
     height="111.41"
     id="rect30542" />
  <polygon
     class="cls-4"
     points="720.29,681.31 699.13,756.95 736.22,756.95 756.76,681.31 "
     id="polygon30544"
     transform="translate(-102.65,-496.10167)" />
  <line
     class="cls-17"
     x1="112.41"
     y1="258.43997"
     x2="145.25"
     y2="258.43997"
     id="line30608" />
  <line
     class="cls-17"
     x1="112.41"
     y1="266.94998"
     x2="145.25"
     y2="266.94998"
     id="line30610" />
  <path
     class="cls-13"
     d="m 193.83,519.81833 c 5.85,0 17.25,-19.82 17.25,-58.26 0,-28.11 -19.7,-46.29 -25.55,-74.14 -9,-42.71 -53.57,-168.17 -123.16,-168.17 -8,0 -18.74,16.81 -18.74,51.44 0,42 40.68,85.49 40.68,94.51 0.04,102.99 90.87,154.62 109.52,154.62 z"
     id="path30550" />
  <path
     class="cls-15"
     d="m 194.28,519.81833 c 0,-5.63 -8.14,-43.4 -12.37,-52.84 -4.23,-9.44 -20.84,-56.65 -23.44,-69.68 -2.6,-13.03 -50.79,-140.32 -96.05,-172.56"
     id="path30552" />
  <line
     class="cls-15"
     x1="173.51001"
     y1="444.74832"
     x2="97.590004"
     y2="429.28836"
     id="line30554" />
  <line
     class="cls-15"
     x1="177.33002"
     y1="455.29837"
     x2="107.8"
     y2="449.50833"
     id="line30556" />
  <line
     class="cls-15"
     x1="155.45001"
     y1="430.07004"
     x2="84.879997"
     y2="408.71005"
     id="line30558" />
  <line
     class="cls-15"
     x1="162.17001"
     y1="410.84836"
     x2="183.70999"
     y2="395.18832"
     id="line30560" />
  <line
     class="cls-15"
     x1="121.38999"
     y1="350.57004"
     x2="142.67001"
     y2="326.44003"
     id="line30562" />
  <line
     class="cls-15"
     x1="114.74"
     y1="337.72006"
     x2="132.85001"
     y2="313.15005"
     id="line30564" />
  <rect
     class="cls-3"
     x="180.37"
     y="31.970001"
     width="218.92999"
     height="42.200001"
     id="rect30566" />
  <circle
     class="cls-2"
     cx="383.58002"
     cy="47.77002"
     r="7.4000001"
     id="circle30568" />
  <line
     class="cls-16"
     x1="255.97"
     y1="47.77002"
     x2="369.95001"
     y2="47.77002"
     id="line30570" />
  <rect
     class="cls-3"
     x="180.37"
     y="103.31"
     width="218.92999"
     height="42.200001"
     id="rect30572" />
  <circle
     class="cls-2"
     cx="383.58002"
     cy="119.10999"
     r="7.4000001"
     id="circle30574" />
  <line
     class="cls-16"
     x1="255.97"
     y1="119.10999"
     x2="369.95001"
     y2="119.10999"
     id="line30576" />
  <rect
     class="cls-3"
     x="180.37"
     y="174.64001"
     width="218.92999"
     height="42.200001"
     id="rect30578" />
  <circle
     class="cls-2"
     cx="383.58002"
     cy="190.44"
     r="7.4000001"
     id="circle30580" />
  <line
     class="cls-16"
     x1="255.97"
     y1="190.44"
     x2="369.95001"
     y2="190.44"
     id="line30582" />
  <rect
     class="cls-3"
     x="180.37"
     y="245.97995"
     width="218.92999"
     height="42.200001"
     id="rect30584" />
  <circle
     class="cls-2"
     cx="383.58002"
     cy="261.78"
     r="7.4000001"
     id="circle30586" />
  <line
     class="cls-16"
     x1="255.97"
     y1="261.78"
     x2="369.95001"
     y2="261.78"
     id="line30588" />
  <rect
     class="cls-3"
     x="180.37"
     y="317.31003"
     width="218.92999"
     height="42.200001"
     id="rect30590" />
  <circle
     class="cls-2"
     cx="383.58002"
     cy="333.12003"
     r="7.4000001"
     id="circle30592" />
  <line
     class="cls-16"
     x1="255.97"
     y1="333.12003"
     x2="369.95001"
     y2="333.12003"
     id="line30594" />
  <line
     class="cls-17"
     x1="112.41"
     y1="62.330017"
     x2="145.25"
     y2="62.330017"
     id="line30596" />
  <line
     class="cls-17"
     x1="112.41"
     y1="70.830017"
     x2="145.25"
     y2="70.830017"
     id="line30598" />
  <line
     class="cls-17"
     x1="112.41"
     y1="120.16003"
     x2="145.25"
     y2="120.16003"
     id="line30600" />
  <line
     class="cls-17"
     x1="112.41"
     y1="128.66003"
     x2="145.25"
     y2="128.66003"
     id="line30602" />
  <line
     class="cls-17"
     x1="112.41"
     y1="190.44"
     x2="145.25"
     y2="190.44"
     id="line30604" />
  <line
     class="cls-17"
     x1="112.41"
     y1="198.95001"
     x2="145.25"
     y2="198.95001"
     id="line30606" />
  <metadata
     id="metadata30615">
    <rdf:RDF>
      <cc:Work
         rdf:about="">
        <dc:title>Artboard 1</dc:title>
      </cc:Work>
    </rdf:RDF>
  </metadata>
</svg>
