<?xml version="1.0" encoding="UTF-8" standalone="no"?>
<svg
   id="Vector"
   viewBox="0 0 1013.71 579.09546"
   version="1.1"
   sodipodi:docname="services.svg"
   width="1013.71"
   height="579.09546"
   inkscape:version="1.1 (c68e22c387, 2021-05-23)"
   xmlns:inkscape="http://www.inkscape.org/namespaces/inkscape"
   xmlns:sodipodi="http://sodipodi.sourceforge.net/DTD/sodipodi-0.dtd"
   xmlns="http://www.w3.org/2000/svg"
   xmlns:svg="http://www.w3.org/2000/svg"
   xmlns:rdf="http://www.w3.org/1999/02/22-rdf-syntax-ns#"
   xmlns:cc="http://creativecommons.org/ns#"
   xmlns:dc="http://purl.org/dc/elements/1.1/">
  <sodipodi:namedview
     id="namedview149"
     pagecolor="#ffffff"
     bordercolor="#666666"
     borderopacity="1.0"
     inkscape:pageshadow="2"
     inkscape:pageopacity="0.0"
     inkscape:pagecheckerboard="0"
     showgrid="false"
     fit-margin-top="0"
     fit-margin-left="0"
     fit-margin-right="0"
     fit-margin-bottom="0"
     inkscape:zoom="0.7275"
     inkscape:cx="514.77663"
     inkscape:cy="179.38144"
     inkscape:window-width="3018"
     inkscape:window-height="1567"
     inkscape:window-x="375"
     inkscape:window-y="392"
     inkscape:window-maximized="0"
     inkscape:current-layer="Vector" />
  <defs
     id="defs4">
    <style
       id="style2">.cls-1{fill:#f3f3f3;}.cls-2{fill:#dfdfdf;}.cls-13,.cls-16,.cls-17,.cls-18,.cls-3,.cls-4{fill:none;}.cls-16,.cls-3,.cls-4{stroke:#f3f3f3;}.cls-13,.cls-16,.cls-18,.cls-3,.cls-4{stroke-linecap:round;stroke-linejoin:round;}.cls-17,.cls-18,.cls-3{stroke-width:4px;}.cls-4{stroke-width:2px;}.cls-5{fill:#d0d0d0;}.cls-6{fill:#de8e68;}.cls-7{fill:#56cad8;}.cls-8{fill:#74d5de;}.cls-9{fill:#fcc486;}.cls-10{fill:#fed385;}.cls-11{fill:#fd8369;}.cls-12{fill:#fed892;}.cls-13{stroke:#d0d0d0;}.cls-13,.cls-16{stroke-width:3px;}.cls-14{fill:#dedede;}.cls-15{fill:#fff;}.cls-17,.cls-18{stroke:#dfdfdf;}.cls-17{stroke-miterlimit:10;}</style>
  </defs>
  <title
     id="title6">Artboard 1</title>
  <rect
     class="cls-1"
     x="-958.89996"
     y="-566.79547"
     width="238.44"
     height="459.20999"
     transform="scale(-1)"
     id="rect8" />
  <rect
     class="cls-2"
     x="-1013.71"
     y="-566.79547"
     width="55.459999"
     height="459.20999"
     transform="scale(-1)"
     id="rect10" />
  <rect
     class="cls-2"
     x="-939.13995"
     y="-174.97548"
     width="198.92999"
     height="38.349998"
     transform="scale(-1)"
     id="rect12" />
  <circle
     class="cls-1"
     cx="754.51001"
     cy="150.99547"
     r="6.73"
     id="circle14" />
  <line
     class="cls-3"
     x1="870.45001"
     y1="150.99547"
     x2="766.89001"
     y2="150.99547"
     id="line16" />
  <rect
     class="cls-2"
     x="-939.13995"
     y="-239.79546"
     width="198.92999"
     height="38.349998"
     transform="scale(-1)"
     id="rect18" />
  <circle
     class="cls-1"
     cx="754.51001"
     cy="215.81548"
     r="6.73"
     id="circle20" />
  <line
     class="cls-3"
     x1="870.45001"
     y1="215.81548"
     x2="766.89001"
     y2="215.81548"
     id="line22" />
  <rect
     class="cls-2"
     x="-939.13995"
     y="-304.62543"
     width="198.92999"
     height="38.349998"
     transform="scale(-1)"
     id="rect24" />
  <circle
     class="cls-1"
     cx="754.51001"
     cy="280.62543"
     r="6.73"
     id="circle26" />
  <line
     class="cls-3"
     x1="870.45001"
     y1="280.62543"
     x2="766.89001"
     y2="280.62543"
     id="line28" />
  <rect
     class="cls-2"
     x="-939.13995"
     y="-369.43542"
     width="198.92999"
     height="38.349998"
     transform="scale(-1)"
     id="rect30" />
  <circle
     class="cls-1"
     cx="754.51001"
     cy="345.44543"
     r="6.73"
     id="circle32" />
  <line
     class="cls-3"
     x1="870.45001"
     y1="345.44543"
     x2="766.89001"
     y2="345.44543"
     id="line34" />
  <rect
     class="cls-2"
     x="-939.13995"
     y="-434.25543"
     width="198.92999"
     height="38.349998"
     transform="scale(-1)"
     id="rect36" />
  <circle
     class="cls-1"
     cx="754.51001"
     cy="410.26544"
     r="6.73"
     id="circle38" />
  <line
     class="cls-3"
     x1="870.45001"
     y1="410.26544"
     x2="766.89001"
     y2="410.26544"
     id="line40" />
  <line
     class="cls-4"
     x1="1000.89"
     y1="164.2155"
     x2="971.05005"
     y2="164.2155"
     id="line42" />
  <line
     class="cls-4"
     x1="1000.89"
     y1="171.94548"
     x2="971.05005"
     y2="171.94548"
     id="line44" />
  <line
     class="cls-4"
     x1="1000.89"
     y1="216.76549"
     x2="971.05005"
     y2="216.76549"
     id="line46" />
  <line
     class="cls-4"
     x1="1000.89"
     y1="224.48546"
     x2="971.05005"
     y2="224.48546"
     id="line48" />
  <line
     class="cls-4"
     x1="1000.89"
     y1="280.62543"
     x2="971.05005"
     y2="280.62543"
     id="line50" />
  <line
     class="cls-4"
     x1="1000.89"
     y1="288.35541"
     x2="971.05005"
     y2="288.35541"
     id="line52" />
  <line
     class="cls-4"
     x1="1000.89"
     y1="342.41547"
     x2="971.05005"
     y2="342.41547"
     id="line54" />
  <line
     class="cls-4"
     x1="1000.89"
     y1="350.13544"
     x2="971.05005"
     y2="350.13544"
     id="line56" />
  <rect
     class="cls-1"
     x="0"
     y="0"
     width="423.14999"
     height="241.03"
     id="rect58" />
  <rect
     class="cls-5"
     x="32.349998"
     y="37.98999"
     width="239.85001"
     height="174.14"
     rx="23.65"
     ry="23.65"
     id="rect60" />
  <path
     class="cls-6"
     d="m 650.63,212.66545 c 4,3.31 32.71,25.1 44.47,38.89 10.91,3 58.19,21 99.55,27.32 -0.13,5.83 -3.12,25.25 -3.12,25.25 0,0 -99.55,-12.37 -111.55,-15.66 -12,-3.29 -58.76,-31.67 -69,-42.4 13.65,-14.44 39.65,-33.4 39.65,-33.4 z"
     id="path62" />
  <ellipse
     class="cls-6"
     cx="805.33002"
     cy="292.31543"
     rx="22.299999"
     ry="16.540001"
     id="ellipse64" />
  <polygon
     class="cls-7"
     points="576.29,782.89 576.29,999.96 650.07,999.96 613.18,785.24 "
     id="polygon66"
     transform="translate(-85.370003,-420.86455)" />
  <polygon
     class="cls-8"
     points="700.05,791.48 700.05,999.96 640.75,999.96 592.83,780.67 "
     id="polygon68"
     transform="translate(-85.370003,-420.86455)" />
  <rect
     class="cls-15"
     x="192.11002"
     y="22.460007"
     width="170.13"
     height="102.6"
     rx="23.65"
     ry="23.65"
     id="rect118" />
  <path
     class="cls-6"
     d="m 475.76,219.40545 c -3.37,3.65 -12.91,15.43 -15.43,19.92 -6.45,-5.61 -114.47,-104.93 -117,-104.93 a 4.57,4.57 0 0 0 -4.49,4.21 c 0,13.16 9.6,13.81 21.52,26.45 25,44.87 84.89,126.17 100.52,126.17 9,0 46.57,-36.68 46.57,-41.49 0,-4.81 -31.69,-30.33 -31.69,-30.33 z"
     id="path70" />
  <path
     class="cls-9"
     d="m 528.19,165.38545 c -25,-15.1 -64.77,40.28 -64,49.54 0.77,9.26 37.5,36.21 52.84,33.21 10.06,-2 37.29,-67 11.16,-82.75 z"
     id="path72" />
  <path
     class="cls-10"
     d="m 563.11,147.40545 c 74.15,0 69.31,210.22 56.17,220.84 -16.35,13.22 -122.47,1 -128.36,-6.22 -5.89,-7.22 -10.22,-214.62 72.19,-214.62 z"
     id="path74" />
  <path
     class="cls-6"
     d="m 583.95,159.79545 c 0,6.2 -34.37,7.53 -34.37,0 v -42.19999 h 34.37 z"
     id="path76" />
  <ellipse
     class="cls-6"
     cx="113.88708"
     cy="558.80908"
     rx="41.369999"
     ry="30.790001"
     transform="rotate(-68.43)"
     id="ellipse78" />
  <ellipse
     class="cls-6"
     cx="247.5359"
     cy="543.37671"
     rx="9.8329182"
     ry="6.8740764"
     transform="rotate(-54.395466)"
     id="ellipse80"
     style="stroke-width:0.996243" />
  <path
     class="cls-11"
     d="m 617.92,94.455463 c 0,-5.73 -5.35,-12 -6.36,-19.25 -0.52,-3.65 0.61,-18.84 -3.65,-24 -8.85,-10.65 -14.08,-8.47 -20.85,-11 -11.8,-4.31 -16.32,-11.46 -26.06,-11.46 -11.06,0 -15.53,5.73 -23.45,5.73 -9.06,0 -16.48,-4.17 -29.19,-4.17 -6.78,0 -15.64,8.86 -15.64,16.68 0,18.48 17.2,15.83 17.2,20.33 0,3.12 -1,5.6 -1,9.9 0,5.6 7.3,8.86 11.47,8.86 12.7,0 14.38,-1.55 14.38,-1.55 a 59.87,59.87 0 0 1 9.57,-13.83 c 0.51,-0.54 8.76,5.29 22.23,5.74 11.05,0.37 18.82,2.5 18.82,7.65 0,3.63 -1.33,14.42 -1.25,17.459997 0.08,3.04 1.16,5 1.84,5 0.68,0 1.06,-1 5.3,-1 4.55,0 4.9,5.59 5.69,5.59 4.53,0.1 20.95,-3.61 20.95,-16.679997 z"
     id="path82" />
  <path
     class="cls-12"
     d="m 596.86,168.56545 c 25,-15.11 64.78,40.28 64,49.53 -0.78,9.25 -37.46,36.2 -52.81,33.21 -10.08,-1.96 -37.31,-66.96 -11.19,-82.74 z"
     id="path84" />
  <path
     class="cls-6"
     d="m 362.96,162.85545 a 22.24,22.24 0 1 0 31.55,29.42 z"
     id="path86" />
  <rect
     class="cls-15"
     x="49.939995"
     y="61.519989"
     width="101.24"
     height="6.8600001"
     id="rect106" />
  <rect
     class="cls-15"
     x="49.939995"
     y="84.619995"
     width="101.24"
     height="6.8600001"
     id="rect108" />
  <rect
     class="cls-15"
     x="49.939995"
     y="107.72002"
     width="101.24"
     height="6.8600001"
     id="rect110" />
  <rect
     class="cls-15"
     x="49.719994"
     y="130.82002"
     width="101.24"
     height="6.8600001"
     id="rect112" />
  <rect
     class="cls-15"
     x="49.719994"
     y="153.92"
     width="101.24"
     height="6.8600001"
     id="rect114" />
  <rect
     class="cls-15"
     x="49.719994"
     y="177.01003"
     width="101.24"
     height="6.8600001"
     id="rect116" />
  <circle
     class="cls-1"
     cx="273.08002"
     cy="35.589996"
     r="5.7199998"
     id="circle120" />
  <circle
     class="cls-1"
     cx="273.08002"
     cy="111.94002"
     r="5.7199998"
     id="circle122" />
  <line
     class="cls-16"
     x1="273.08002"
     y1="37.459991"
     x2="273.08002"
     y2="110.32002"
     id="line124" />
  <line
     class="cls-16"
     x1="286.97"
     y1="47.01001"
     x2="286.97"
     y2="89.5"
     id="line126" />
  <line
     class="cls-16"
     x1="273.08002"
     y1="111.94002"
     x2="286.97"
     y2="89.5"
     id="line128" />
  <metadata
     id="metadata151">
    <rdf:RDF>
      <cc:Work
         rdf:about="">
        <dc:title>Artboard 1</dc:title>
      </cc:Work>
    </rdf:RDF>
  </metadata>
</svg>
