<?xml version="1.0" encoding="UTF-8"?>
<svg id="svg26" width="78.051" height="89.546" enable-background="new 0 0 100 100" fill="#000000" version="1.1" viewBox="0 0 78.051 89.546" xml:space="preserve" xmlns="http://www.w3.org/2000/svg"><g id="layer3" transform="translate(-10.296 -5.4142)" display="none"><g id="g1055" clip-rule="evenodd" fill="#000" fill-rule="evenodd"><polygon id="polygon2" points="68.5 22.3 88.5 28.2 68.4 59.9"/><polygon id="polygon4" points="34.7 19.6 49.8 5.2 67.2 38.5"/><polygon id="polygon6" points="60.8 24.5 67.8 38.3 67.8 22.3"/><polygon id="polygon8" points="83.2 52.9 88.2 73.2 50.6 71.7"/><polygon id="polygon10" points="77.4 47.4 69.1 60.3 82.8 52.3"/><polygon id="polygon12" points="63.9 80.9 48.7 95.2 31.5 61.9"/><polygon id="polygon14" points="65.8 73.1 50.5 72.2 64.2 80.2"/><polygon id="polygon16" points="30.1 78 10.1 72 30.5 40.4"/><polygon id="polygon18" points="37.8 75.8 30.9 62.1 30.8 78"/><polygon id="polygon20" points="15.8 47.3 11 27 48.5 28.9"/><polygon id="polygon22" points="21.5 52.9 30 40.1 16.1 47.9"/><polygon id="polygon24" points="32.9 27.4 48.2 28.3 34.5 20.2"/></g></g><g id="layer1" transform="translate(-10.296 -5.4142)" stroke-width=".11455"><path id="path1144" d="m40.216 78.622c-4.6409-8.9856-8.4176-16.358-8.3926-16.383 0.04223-0.04223 31.645 18.442 31.839 18.623 0.09139 0.08487-14.726 14.097-14.907 14.097-0.05576 0-3.8985-7.3519-8.5394-16.338z" fill="#fbbb01"/><path id="path1183" d="m68.083 72.35-17.255-0.70096 16.087-9.2784c8.8479-5.1031 16.125-9.2919 16.171-9.3085 0.04614-0.01658 0.46095 1.504 0.9218 3.3792 0.46084 1.8751 1.5722 6.3861 2.4698 10.024l1.6319 6.6151-1.3861-0.01496c-0.76236-0.0082-9.1507-0.33039-18.641-0.71592z" fill="#fbbb01"/><path id="path1222" d="m68.506 41.065c0.04419-10.206 0.09869-18.577 0.1211-18.603 0.03465-0.03914 19.632 5.6958 19.72 5.7709 0.03656 0.03114-19.648 31.105-19.811 31.274-0.07139 0.07379-0.08222-6.4875-0.03046-18.442z" fill="#fbbb01"/><path id="path1261" d="m50.891 28.943c-8.802-5.1138-16.005-9.3246-16.008-9.3574-0.00489-0.07207 14.739-14.133 14.86-14.171 0.08119-0.025723 17.244 32.734 17.182 32.796-0.01663 0.01663-7.2319-4.1538-16.034-9.2675z" fill="#fbbb01"/><path id="path1300" d="m15.855 47.17c-0.07304-0.25223-4.7688-20.084-4.7585-20.097 0.0304-0.0367 36.346 1.8055 36.709 1.8622 0.34714 0.05414-1.0937 0.89086-15.292 8.8803-8.6214 4.8513-15.894 8.9482-16.162 9.1041-0.26776 0.15595-0.49119 0.26848-0.49652 0.25007z" fill="#fbbb01"/><path id="path1339" d="m20.018 74.93c-5.5377-1.6657-9.746-2.988-9.7214-3.0545 0.02387-0.06454 4.5469-7.0938 10.051-15.621l10.008-15.503 0.03507 0.95855c0.01929 0.5272-0.04539 8.2266-0.14374 17.11-0.09834 8.8832-0.17855 16.808-0.17825 17.612 4.59e-4 1.0989-0.0349 1.4574-0.14263 1.4481-0.07875-0.0068-4.5373-1.3341-9.908-2.9496z" fill="#fbbb01"/><path id="path1452" d="m57.472 76.204c-3.608-2.1138-6.542-3.8613-6.52-3.8834 0.06507-0.06507 14.508 0.80263 14.632 0.87904 0.06941 0.0429-0.17499 1.3468-0.63354 3.38-0.4106 1.8206-0.74655 3.3505-0.74655 3.3998 0 0.04928-0.03866 0.08469-0.08591 0.07869s-3.0379-1.7404-6.646-3.8542z" fill="#d45500"/><path id="path1491" d="m70.599 58.104c0.67919-1.0553 2.4882-3.8677 4.0201-6.2499l2.7852-4.3312 0.24394 0.2173c2.2678 2.0201 4.9951 4.5339 4.9587 4.5704-0.0679 0.0679-13.154 7.712-13.202 7.712-0.02216 0 0.5154-0.8634 1.1946-1.9187z" fill="#d45500"/><path id="path1530" d="m64.301 31.254c-1.8681-3.6757-3.3867-6.6938-3.3746-6.7068 0.07536-0.08116 6.7306-2.117 6.7751-2.0725 0.03024 0.03024 0.04174 3.5216 0.02554 7.7587l-0.02945 7.7037z" fill="#d45500"/><path id="path1569" d="m40.149 27.771c-3.3706-0.20789-6.3651-0.38159-6.6544-0.386l-0.52613-8e-3 0.76622-3.4379c0.42142-1.8908 0.79782-3.4695 0.83644-3.5081 0.06433-0.06433 13.138 7.6011 13.138 7.7032 0 0.08365-1.4282 0.01504-7.5601-0.36316z" fill="#d45500"/><path id="path1608" d="m18.821 50.326c-1.4056-1.3012-2.5682-2.3748-2.5836-2.3857-0.01534-0.01088 2.9713-1.7027 6.637-3.7596 3.6657-2.0569 6.6834-3.7213 6.706-3.6987 0.06399 0.06399-8.0028 12.21-8.1093 12.21-0.05197 0-1.2446-1.0646-2.6502-2.3659z" fill="#d45500"/><path id="path1647" d="m30.871 73.341c0-2.5166 0.03411-5.9779 0.0758-7.6919l0.0758-3.1163 3.3 6.5055c1.815 3.578 3.3015 6.5606 3.3034 6.628 0.0018 0.06734-1.4529 0.57763-3.2326 1.134s-3.3004 1.0351-3.3792 1.0639c-0.11303 0.04137-0.14318-0.91111-0.14318-4.5231z" fill="#d45500"/></g></svg>
