<svg xmlns="http://www.w3.org/2000/svg" xmlns:xlink="http://www.w3.org/1999/xlink" viewBox="0 0 300 105.63"><defs><style>.cls-1{fill:#f4f5f7;}.cls-2{fill:#091e42;}.cls-3{fill:url(#linear-gradient);}.cls-4{fill:#2684ff;}.cls-5{fill:#0052cc;}</style><linearGradient id="linear-gradient" x1="48.83" y1="48.3" x2="34.7" y2="72.76" gradientUnits="userSpaceOnUse"><stop offset="0.08" stop-color="#0052cc"/><stop offset="1" stop-color="#2684ff"/></linearGradient></defs><title>Marketplace Badge-light</title><g id="Layer_2" data-name="Layer 2"><g id="Layer_1-2" data-name="Layer 1"><rect class="cls-1" width="300" height="105.63" rx="11.52" ry="11.52"/><path class="cls-2" d="M108.91,40.72l-1.06,2.84h-1.94l5-12.61h2.19l5,12.61h-1.94l-1.06-2.86a15.29,15.29,0,0,1-3.13.35A15.54,15.54,0,0,1,108.91,40.72Zm5.62-1.46L112,32.35l-2.55,6.93a15.28,15.28,0,0,0,2.5.23A16.8,16.8,0,0,0,114.53,39.26Z"/><path class="cls-2" d="M117.55,34h1.73l3.11,8.2,3.09-8.2h1.73l-3.72,9.6h-2.21Z"/><path class="cls-2" d="M134.75,41.84a3.38,3.38,0,0,1-3.24,1.92c-2.55,0-3.84-2.17-3.84-5s1.34-5,4-5a3.15,3.15,0,0,1,3.05,1.88V34h1.65v9.6h-1.65Zm-2.8.38a2.74,2.74,0,0,0,2.8-3.07v-.77c0-2.13-1.21-3.07-2.61-3.07-1.86,0-2.82,1.23-2.82,3.46S130.24,42.22,131.94,42.22Z"/><path class="cls-2" d="M139.74,30.28a1.15,1.15,0,1,1-1.15,1.15A1.08,1.08,0,0,1,139.74,30.28ZM138.89,34h1.65v9.6h-1.65Z"/><path class="cls-2" d="M145.61,43.62A2.27,2.27,0,0,1,143,41.11V30h1.65v11c0,.86.58,1.17,1.29,1.17a4.31,4.31,0,0,0,.48,0v1.48A3.46,3.46,0,0,1,145.61,43.62Z"/><path class="cls-2" d="M154.46,41.84a3.38,3.38,0,0,1-3.24,1.92c-2.55,0-3.84-2.17-3.84-5s1.34-5,4-5a3.15,3.15,0,0,1,3.05,1.88V34h1.65v9.6h-1.65Zm-2.8.38a2.74,2.74,0,0,0,2.8-3.07v-.77c0-2.13-1.21-3.07-2.61-3.07-1.86,0-2.82,1.23-2.82,3.46S150,42.22,151.66,42.22Z"/><path class="cls-2" d="M163.31,43.76a3.15,3.15,0,0,1-3.05-1.88v1.69h-1.65V30h1.65v5.74a3.38,3.38,0,0,1,3.24-1.92c2.55,0,3.84,2.17,3.84,5S166,43.76,163.31,43.76Zm-.25-8.45a2.74,2.74,0,0,0-2.8,3.07v.77c0,2.13,1.21,3.07,2.61,3.07,1.86,0,2.82-1.23,2.82-3.46S164.77,35.31,163.06,35.31Z"/><path class="cls-2" d="M171.84,43.62a2.27,2.27,0,0,1-2.57-2.51V30h1.65v11c0,.86.58,1.17,1.29,1.17a4.31,4.31,0,0,0,.48,0v1.48A3.46,3.46,0,0,1,171.84,43.62Z"/><path class="cls-2" d="M178.77,43.76c-3.59,0-5.16-2.07-5.16-5s1.61-5,4.53-5,4.15,2.05,4.15,5v.75h-7c.23,1.63,1.29,2.69,3.55,2.69a8.49,8.49,0,0,0,2.92-.52v1.52A6.87,6.87,0,0,1,178.77,43.76Zm-3.51-5.68h5.36c-.1-1.79-.9-2.8-2.55-2.8S175.43,36.4,175.25,38.07Z"/><path class="cls-2" d="M186.83,38.75c0-2.88,1.69-5,4.57-5s4.53,2.09,4.53,5-1.67,5-4.53,5S186.83,41.63,186.83,38.75Zm1.61,0c0,1.82.9,3.47,3,3.47s2.92-1.65,2.92-3.47-.88-3.44-2.92-3.44S188.44,36.92,188.44,38.75Z"/><path class="cls-2" d="M206,43.56h-1.65v-5.8c0-1.73-.69-2.5-2.26-2.5s-2.59,1-2.59,3v5.34h-1.65V34h1.65v1.57a3.37,3.37,0,0,1,3-1.77c2.21,0,3.47,1.52,3.47,4.17Z"/><path class="cls-2" d="M215.28,42a5.23,5.23,0,0,0,1-.13v1.59a4,4,0,0,1-1.11.15,2.75,2.75,0,0,1-3.05-3V35.5h-1.56V34h1.56v-2h1.61v2h2.55V35.5h-2.55v5A1.34,1.34,0,0,0,215.28,42Z"/><path class="cls-2" d="M226.59,43.56h-1.65V38.23c0-2-.69-3-2.26-3s-2.59,1-2.59,3v5.34h-1.65V30h1.65v5.6a3.51,3.51,0,0,1,3.17-1.79c2.15,0,3.34,1.46,3.34,4.17Z"/><path class="cls-2" d="M233.5,43.76c-3.59,0-5.16-2.07-5.16-5s1.61-5,4.53-5,4.15,2.05,4.15,5v.75h-7c.23,1.63,1.29,2.69,3.55,2.69a8.49,8.49,0,0,0,2.92-.52v1.52A6.87,6.87,0,0,1,233.5,43.76ZM230,38.07h5.36c-.1-1.79-.9-2.8-2.55-2.8S230.16,36.4,230,38.07Z"/><path class="cls-2" d="M113.29,54.21l2.82,7.72,2.65,8,2.62-8,2.85-7.72h4.15V73.13h-2.59V56l-2,6.82L120,73.13h-2.48l-3.74-10.34-2.33-7V73.13h-2.59V54.21Z"/><path class="cls-2" d="M142.29,70.54a5.07,5.07,0,0,1-4.87,2.88c-3.83,0-5.76-3.25-5.76-7.49,0-4.06,2-7.49,6-7.49a4.72,4.72,0,0,1,4.58,2.82V58.73h2.48v14.4h-2.48Zm-4.2.58c2.22,0,4.2-1.41,4.2-4.61V65.35c0-3.2-1.81-4.61-3.92-4.61-2.79,0-4.23,1.84-4.23,5.18S135.52,71.11,138.09,71.11Z"/><path class="cls-2" d="M148.51,58.73h2.42v2.53c.83-1.7,2.27-2.91,5.1-2.74v2.42c-3.17-.32-5.1.63-5.1,3.69v8.49h-2.42Z"/><path class="cls-2" d="M158.16,73.13V52.71h2.48V65.47l6.19-6.74h3.23l-6.77,7.08,7.05,7.31H167l-6.33-6.74v6.74Z"/><path class="cls-2" d="M178.55,73.42c-5.38,0-7.75-3.11-7.75-7.52s2.42-7.46,6.79-7.46,6.22,3.08,6.22,7.46V67H173.3c.35,2.45,1.93,4,5.33,4a12.74,12.74,0,0,0,4.38-.78v2.27A10.29,10.29,0,0,1,178.55,73.42Zm-5.27-8.52h8c-.14-2.68-1.35-4.2-3.83-4.2S173.54,62.39,173.28,64.89Z"/><path class="cls-2" d="M192.45,70.71a7.9,7.9,0,0,0,1.56-.2V72.9a6,6,0,0,1-1.67.23c-3.08,0-4.58-1.81-4.58-4.49V61h-2.33v-2.3h2.33V55.68h2.42v3.05H194V61h-3.83v7.54A2,2,0,0,0,192.45,70.71Z"/><path class="cls-2" d="M199.65,70.59v8.15h-2.48v-20h2.48v2.59a5.07,5.07,0,0,1,4.87-2.88c3.83,0,5.76,3.25,5.76,7.49,0,4.06-2,7.49-6,7.49A4.72,4.72,0,0,1,199.65,70.59Zm4.2-9.85c-2.22,0-4.2,1.41-4.2,4.61v1.15c0,3.2,1.81,4.61,3.92,4.61,2.79,0,4.23-1.84,4.23-5.18S206.42,60.75,203.86,60.75Z"/><path class="cls-2" d="M217,73.21c-2.36,0-3.86-1.12-3.86-3.77V52.71h2.48V69.16c0,1.3.86,1.76,1.93,1.76a6.16,6.16,0,0,0,.72,0V73.1A5.34,5.34,0,0,1,217,73.21Z"/><path class="cls-2" d="M230.29,70.54a5.07,5.07,0,0,1-4.87,2.88c-3.83,0-5.76-3.25-5.76-7.49,0-4.06,2-7.49,6-7.49a4.72,4.72,0,0,1,4.58,2.82V58.73h2.48v14.4h-2.48Zm-4.2.58c2.22,0,4.2-1.41,4.2-4.61V65.35c0-3.2-1.81-4.61-3.92-4.61-2.79,0-4.23,1.84-4.23,5.18S223.52,71.11,226.09,71.11Z"/><path class="cls-2" d="M246.68,72.76a8,8,0,0,1-3.51.66c-5.12,0-7.51-3.11-7.51-7.52s2.39-7.46,7.51-7.46a7.61,7.61,0,0,1,3.43.69v2.3a7.26,7.26,0,0,0-3.25-.69c-3.74,0-5.27,2.36-5.27,5.15s1.55,5.15,5.33,5.15a9.08,9.08,0,0,0,3.28-.52Z"/><path class="cls-2" d="M256.38,73.42c-5.38,0-7.75-3.11-7.75-7.52s2.42-7.46,6.79-7.46,6.22,3.08,6.22,7.46V67H251.14c.35,2.45,1.93,4,5.33,4a12.74,12.74,0,0,0,4.38-.78v2.27A10.29,10.29,0,0,1,256.38,73.42Zm-5.27-8.52h8c-.14-2.68-1.35-4.2-3.83-4.2S251.37,62.39,251.11,64.89Z"/><path class="cls-3" d="M41.49,44.17a1.55,1.55,0,0,0-2.64.29L25.47,71.21a1.6,1.6,0,0,0,1.43,2.31H45.53A1.54,1.54,0,0,0,47,72.64C51,64.34,48.55,51.71,41.49,44.17Z"/><path class="cls-4" d="M51.31,19.83a35.29,35.29,0,0,0-2.06,34.84l9,18a1.6,1.6,0,0,0,1.43.88H78.29a1.6,1.6,0,0,0,1.43-2.31L54,19.82A1.51,1.51,0,0,0,51.31,19.83Z"/><path class="cls-5" d="M48.9,80.23c0,1.08.5,1.93,2.45,2.31,1.16.24,1.41.43,1.41.82s-.24.62-1.06.62a6,6,0,0,1-2.83-.76V85a5.78,5.78,0,0,0,2.8.61c2,0,2.85-.91,2.85-2.26m0,0c0-1.27-.68-1.87-2.58-2.28-1.05-.23-1.31-.47-1.31-.8s.38-.6,1.08-.6a6.06,6.06,0,0,1,2.46.61V78.57a5.56,5.56,0,0,0-2.41-.5c-1.88,0-2.86.82-2.86,2.16"/><polygon class="cls-5" points="75.1 78.18 75.1 85.47 76.65 85.47 76.65 79.91 77.31 81.39 79.5 85.47 81.45 85.47 81.45 78.18 79.9 78.18 79.9 82.88 79.31 81.52 77.55 78.18 75.1 78.18"/><rect class="cls-5" x="63.53" y="78.18" width="1.7" height="7.28"/><path class="cls-5" d="M61.58,83.31C61.58,82,60.9,81.44,59,81c-1.05-.23-1.31-.47-1.31-.8s.38-.6,1.08-.6a6.06,6.06,0,0,1,2.46.61V78.57a5.56,5.56,0,0,0-2.41-.5c-1.88,0-2.86.82-2.86,2.16,0,1.08.5,1.93,2.45,2.31,1.16.24,1.41.43,1.41.82s-.24.62-1.06.62a6,6,0,0,1-2.83-.76V85a5.78,5.78,0,0,0,2.8.61c2,0,2.85-.91,2.85-2.26"/><polygon class="cls-5" points="35.72 78.18 35.72 85.47 39.2 85.47 39.75 83.89 37.43 83.89 37.43 78.18 35.72 78.18"/><polygon class="cls-5" points="28.83 78.18 28.83 79.76 30.71 79.76 30.71 85.47 32.42 85.47 32.42 79.76 34.44 79.76 34.44 78.18 28.83 78.18"/><path class="cls-5" d="M26.35,78.18H24.12l-2.54,7.28h1.94l.36-1.23a4.82,4.82,0,0,0,2.72,0L27,85.47h1.94Zm-1.12,4.74a3.31,3.31,0,0,1-.93-.13l.93-3.18.93,3.18A3.31,3.31,0,0,1,25.24,82.93Z"/><path class="cls-5" d="M45.22,78.18H43l-2.54,7.28h1.94l.36-1.23a4.82,4.82,0,0,0,2.72,0l.36,1.23h1.94ZM44.1,82.93a3.31,3.31,0,0,1-.93-.13l.93-3.18L45,82.79A3.31,3.31,0,0,1,44.1,82.93Z"/><path class="cls-5" d="M71.34,78.18H69.11l-2.54,7.28h1.94l.36-1.23a4.82,4.82,0,0,0,2.72,0l.36,1.23h1.94Zm-1.12,4.74a3.31,3.31,0,0,1-.93-.13l.93-3.18.93,3.18A3.31,3.31,0,0,1,70.22,82.93Z"/></g></g></svg>